<svg id="visual" viewBox="0 0 900 600" width="900" height="600" xmlns="http://www.w3.org/2000/svg" xmlns:xlink="http://www.w3.org/1999/xlink" version="1.1"><rect x="0" y="0" width="900" height="600" fill="#ffffff"></rect><g transform="translate(460.36897629434395 344.74327599715286)"><path d="M115.1 -142.1C175.3 -114.7 268.4 -116 315.7 -77.3C363 -38.6 364.6 40.2 315.4 74.9C266.1 109.7 166.1 100.3 105.1 109C44.1 117.7 22 144.3 -15.4 165.6C-52.9 186.8 -105.8 202.6 -154.6 190C-203.4 177.3 -248.2 136.3 -293.1 76.7C-337.9 17.1 -383 -61 -370.3 -126.6C-357.6 -192.2 -287.3 -245.4 -215.9 -269.2C-144.6 -293 -72.3 -287.5 -22.4 -256.6C27.4 -225.8 54.9 -169.5 115.1 -142.1" fill="#a514b9"></path></g></svg>